<svg width="122" height="100" viewBox="0 0 122 100" fill="none" xmlns="http://www.w3.org/2000/svg">
<g clip-path="url(#clip0_2_3)">
<path d="M82.1439 35.3847C86.4345 39.8044 92.3892 42.1478 98.2696 43.5789C103.699 45.1431 109.43 45.4515 115.045 45.1782C112.198 43.9103 108.886 44.2839 106.073 42.8955C101.4 40.7729 96.7715 38.3994 92.7965 35.1159C89.5166 32.4335 86.9772 28.8838 85.4413 24.9375C84.3227 22.5959 83.4473 19.8767 81.1916 18.3619C79.323 17.0086 76.6253 17.4623 74.955 18.9109C73.5612 20.2063 73.7617 22.3104 74.3552 23.9443C75.9639 28.3321 78.9615 32.0315 82.1439 35.3847ZM54.7157 44.484C54.4203 40.7374 54.1793 36.8833 52.6331 33.4015C51.7132 31.1786 49.761 29.4404 47.3708 28.9948C45.3098 29.8248 43.4979 31.4043 42.9673 33.6384C41.8055 38.363 43.6903 43.065 44.5446 47.674C46.4199 57.315 49.5209 66.6526 51.5662 76.254C52.8476 80.6476 54.2009 85.0251 55.4917 89.4182C56.0731 91.245 56.5407 93.1536 57.5887 94.7857C57.8261 93.1527 57.7344 91.4999 57.7218 89.8584C57.0006 74.7164 56.2574 59.568 54.7157 44.484ZM71.1854 33.7908C67.1933 31.0145 62.2391 29.3509 57.3612 30.0411C55.7997 31.3553 54.6505 33.4145 54.9841 35.5034C55.4472 37.3886 57.1144 38.5761 58.6345 39.5994C62.3389 41.9041 66.5756 43.1086 70.618 44.6607C67.2289 51.6373 63.8649 58.6283 60.3228 65.5308C59.8143 66.493 59.5863 67.5657 59.4321 68.6354C61.0975 68.0279 62.182 66.5541 63.4103 65.3595C67.0778 61.4038 70.94 57.6365 74.5935 53.6691C77.23 50.788 79.4655 47.1263 79.4003 43.1086C78.863 38.6183 74.678 35.9939 71.1854 33.7908ZM38.701 51.3729C35.2983 48.3776 30.772 46.813 26.2566 46.813C24.9936 46.813 23.7311 46.9353 22.4942 47.1839C14.9884 48.8218 8.43214 53.849 4.58481 60.4506C-0.550663 68.456 -1.85993 79.1531 2.20097 87.8864C4.52546 93.0399 9.17131 97.1812 14.6764 98.6056C16.2972 98.9918 17.9599 99.1825 19.6239 99.1825C23.7343 99.1825 27.8451 98.0189 31.3017 95.774C36.7932 92.6865 40.7921 87.4858 43.4929 81.8881C46.0063 75.7891 47.0799 68.853 45.2635 62.4141C44.2887 58.1603 41.9247 54.2945 38.701 51.3729ZM41.0295 80.7852C39.0669 84.8313 35.5649 90.281 29.9803 93.4207L29.9052 93.4634L29.8328 93.5102C26.8811 95.4273 23.2554 96.4834 19.6243 96.4834C18.1654 96.4834 16.7198 96.3157 15.3265 95.9862C10.7737 94.7987 6.68855 91.2724 4.66035 86.7768L4.65405 86.7624L4.64731 86.7489C1.14258 79.2116 2.00943 69.4608 6.8558 61.9065L6.88683 61.8583L6.91605 61.8093C10.4514 55.7436 16.4807 51.2646 23.0481 49.8245C24.0926 49.6167 25.1721 49.5115 26.257 49.5115C30.2195 49.5115 34.0996 50.9233 36.9048 53.3845C39.7733 55.99 41.8082 59.4098 42.6346 63.0161L42.6494 63.0817L42.6679 63.1465C44.5482 69.8129 42.8239 76.4047 41.0295 80.7852ZM120.698 64.7583C119.718 59.4848 116.886 54.5171 112.56 51.2925C109.336 48.9266 105.337 47.714 101.345 47.714C100.093 47.714 98.8407 47.8336 97.6146 48.0737C91.3694 49.4513 85.7201 53.1242 81.8278 58.1832C79.2717 61.6236 77.0061 65.4197 76.0305 69.6384C73.9735 76.7401 74.6304 84.7733 78.555 91.1304C81.8206 96.4335 87.8013 100.071 94.0811 100.071C94.278 100.071 94.4767 100.068 94.6736 100.061C94.8791 100.068 95.0837 100.071 95.2883 100.071C100.449 100.071 105.29 97.7469 109.361 94.7115C118.108 87.7272 122.937 75.8283 120.698 64.7583ZM107.714 92.5745C103.433 95.7587 99.253 97.3732 95.2892 97.3732C95.1174 97.3732 94.9452 97.3701 94.7721 97.3638L94.6736 97.3602L94.5752 97.3638C94.4102 97.3701 94.2452 97.3732 94.0811 97.3732C88.9096 97.3732 83.7161 94.3676 80.8499 89.7127C77.5142 84.3102 76.6815 77.0863 78.6207 70.3888L78.6414 70.3178L78.658 70.2459C79.4066 67.0091 81.098 63.6928 83.9774 59.8117C87.4933 55.2508 92.6612 51.9376 98.1626 50.7156C99.2003 50.5137 100.27 50.4117 101.345 50.4117C104.863 50.4117 108.279 51.4966 110.948 53.4551C114.567 56.1523 117.154 60.4515 118.045 65.2507L118.049 65.2718L118.054 65.2929C120.033 75.0761 115.878 86.0336 107.714 92.5745Z" fill="#FC4C02"/>
<path d="M95.9847 24.84C101.448 24.84 105.876 20.4114 105.876 14.9485C105.876 9.48563 105.876 7.59692 95.9847 7.59692C86.0932 7.59692 86.0932 9.48563 86.0932 14.9485C86.0932 20.4114 90.5218 24.84 95.9847 24.84Z" fill="#FC4C02"/>
<g clip-path="url(#clip1_2_3)">
<path d="M103.884 1.25279L101.69 2.1878L96.1489 -0.170044L90.608 2.1878L88.4134 1.25279L87.6964 1.64189L88.6959 8.66896H103.602L104.601 1.64189L103.884 1.25279ZM96.1489 7.21709L94.5554 4.81859L96.1489 2.41429L97.7423 4.81859L96.1489 7.21709Z" fill="#FC4C02"/>
</g>
</g>
<defs>
<clipPath id="clip0_2_3">
<rect width="121.395" height="100" fill="white"/>
</clipPath>
<clipPath id="clip1_2_3">
<rect width="17.383" height="13.938" fill="white" transform="translate(87.4574 -1.39539)"/>
</clipPath>
</defs>
</svg>
